<?xml version="1.0" encoding="utf-8"?>
<svg width="768px" height="767.99994px" viewBox="0 0 768 767.99994" version="1.1" xmlns:xlink="http://www.w3.org/1999/xlink" xmlns="http://www.w3.org/2000/svg">
  <g id="编组-3-复制">
    <path d="M0 0L768 0L768 768L0 768L0 0L0 0L0 0Z" id="矩形" fill="#161616" fill-rule="evenodd" stroke="none" />
    <g id="编组" transform="translate(208.87584 232.688)">
      <path d="M22.6902 35.36L28.8342 45.088C31.3942 49.696 32.4182 52.768 32.4182 57.376L32.4182 294.432C32.4182 304.16 38.0502 309.792 47.7782 309.792L104.61 309.792C114.338 309.792 119.97 304.16 119.97 294.432L119.97 154.656C119.97 144.928 126.626 142.368 132.258 150.56L236.194 300.064C240.802 307.232 246.434 309.792 254.626 309.792L325.282 309.792C335.01 309.792 340.642 304.16 340.642 294.432L340.642 35.36C340.642 25.632 335.01 20 325.282 20L271.522 20C261.794 20 256.162 25.632 256.162 35.36L256.162 180.256C256.162 189.984 249.506 191.52 243.874 183.84L134.818 29.728C130.21 23.072 124.578 20 116.386 20L34.9782 20C22.6902 20 17.0582 26.656 22.6902 35.36L22.6902 35.36Z" id="N" fill="#5E438F" stroke="none" />
      <path d="M2.19017 15.36L8.33416 25.088C10.8942 29.696 11.9182 32.768 11.9182 37.376L11.9182 274.432C11.9182 284.16 17.5502 289.792 27.2782 289.792L84.1102 289.792C93.8382 289.792 99.4702 284.16 99.4702 274.432L99.4702 134.656C99.4702 124.928 106.126 122.368 111.758 130.56L215.694 280.064C220.302 287.232 225.934 289.792 234.126 289.792L304.782 289.792C314.51 289.792 320.142 284.16 320.142 274.432L320.142 15.36C320.142 5.632 314.51 0 304.782 0L251.022 0C241.294 0 235.662 5.632 235.662 15.36L235.662 160.256C235.662 169.984 229.006 171.52 223.374 163.84L114.318 9.728C109.71 3.072 104.078 0 95.8862 0L14.4782 0C2.19017 0 -3.44184 6.656 2.19017 15.36L2.19017 15.36Z" id="N-2" fill="#CC96F8" stroke="none" />
    </g>
  </g>
</svg>